<svg id="Layer_1" data-name="Layer 1" xmlns="http://www.w3.org/2000/svg" viewBox="0 0 405.86 408.86"><defs><style>.cls-1{fill:#fff;}</style></defs><path class="cls-1" d="M370.83,299.93a22.66,22.66,0,0,0-4.37-14q-15.61-22.05-31-44.29c-4.24-6.19-9.67-9.18-17.29-9.06-15.8.25-31.62.08-47.93.08a28.43,28.43,0,0,1,0-3.5c1-7.35-4.56-13.46-13.46-13.4-45.37.31-90.74.14-136.11.15-8,0-12.37,4.32-12.37,12.2q0,57.6,0,115.2c0,7.83,4.44,12.19,12.39,12.2h21.49c4,13.4,13.65,21.75,25.4,22.33a28.3,28.3,0,0,0,17.55-4.57c6.39-4.23,10.22-10.28,12.07-17.63h84.55c4.63,14.13,14.23,22.06,26.73,22.21,13.86.16,23.06-7,28.52-22.34,5.49,0,11.06,0,16.63,0,10-.06,17.08-7.17,17.1-17.19C370.8,325.53,370.64,312.72,370.83,299.93ZM170,366.69a16.74,16.74,0,1,1,16.49-16.89A17,17,0,0,1,170,366.69Zm88.82-22.31H197.27c-1.9-7.53-5.78-13.67-12.32-17.9A28.21,28.21,0,0,0,168.42,322c-12,.33-21.09,7.86-26.39,22.36H119.68V227.25H258.81Zm77.81-81.46c4.36,6.54,8.94,12.93,13.71,19.77h-52V260.57h12.2c7.08,0,14.17.08,21.24-.05A5,5,0,0,1,336.62,262.92ZM309.38,366.69A16.74,16.74,0,1,1,326.09,350,17,17,0,0,1,309.38,366.69Zm50.23-29.21c0,4.69-2.16,6.83-6.82,6.88-5.22.06-10.45,0-15.91,0-1.93-7.67-5.92-13.86-12.62-18.1a28.4,28.4,0,0,0-17.3-4.22c-11.6.66-21.21,9-25.09,22.16H270.44V244c.9-.06,1.89-.2,2.88-.2,15,0,30,.07,45,0,4,0,6.57,1.62,8.3,5.5-1.16.06-2.14.15-3.12.15-9.89,0-19.78,0-29.66,0-4.9,0-6.81,1.86-6.82,6.66q0,15.71,0,31.42c0,4.61,1.95,6.56,6.56,6.56q30.54,0,61.07,0c4.47,0,4.94.43,4.95,5Q359.67,318.28,359.61,337.48Z"/><path class="cls-1" d="M135.62,68.26c-4-22.48-24.84-38.49-48.39-36.58C65.22,33.46,47,53.06,46.9,75.13l-.88.24C47.5,80.93,48.45,86.7,50.57,92c8.78,22,22.36,41.16,36.36,60,2.61,3.53,6.75,3.4,9.44-.2,12.87-17.25,25.08-34.94,34.09-54.6C134.66,88.08,137.45,78.71,135.62,68.26Zm-14.37,22c-7.61,17.35-18.15,32.94-29.1,48.27-.11.16-.38.21-1.06.55C86,131.4,80.42,124,75.83,115.93A299.32,299.32,0,0,1,60.15,85.31C51.72,65.58,70.39,39.57,95.89,43.23c16.3,2.33,27.34,14.18,29,30.54C125.54,79.66,123.53,85,121.25,90.24Z"/><path class="cls-1" d="M315.1,42.77c-29.86-.63-54,30.66-41.29,60.51,9.3,21.78,22.52,41.1,36.53,60,2.62,3.53,6.73,3.36,9.44-.27,12.79-17.16,25.08-34.69,33.84-54.32,2.7-6.07,5.27-12.68,5.73-19.2C361.11,64.07,340.55,42.79,315.1,42.77ZM345.59,99c-7.53,18.55-18.94,34.81-30.64,51.69-11.78-17-23.24-33.34-30.82-52-5.19-12.83-2.56-24.32,6.63-34.11s21.13-13,34.1-8.95,20.55,13.28,23.08,26.75C349.06,88.27,347.75,93.7,345.59,99Z"/><rect class="cls-1" x="35.99" y="249.64" width="60.94" height="10.78"/><rect class="cls-1" x="47.17" y="283.16" width="49.75" height="10.76"/><rect class="cls-1" x="58.35" y="316.69" width="38.62" height="10.72"/><path class="cls-1" d="M187.32,149.32c-.28-3.64-.54-7.08-.85-11H198a2.2,2.2,0,0,1,.26.82C197.8,151.71,200.59,148.87,187.32,149.32Z"/><path class="cls-1" d="M302.6,181.76l-11.7.77V171.36l10.46-.77C301.77,174.33,302.15,177.74,302.6,181.76Z"/><path class="cls-1" d="M280.35,170.63c-.45,3.67-.87,7.17-1.36,11.23l-11.85-2.43c1.07-3.84,2-7.24,3.05-10.86Z"/><path class="cls-1" d="M221.9,141.87l-3.6,10.69L208.23,150c.64-3.67,1.23-7.08,1.93-11Z"/><path class="cls-1" d="M133.58,158l-10.49,3.32c-1.26-3.67-2.42-7-3.66-10.62l10.89-3.5Z"/><path class="cls-1" d="M260.65,165l-4.75,10.18-10.55-5.94,6.31-9.4Z"/><path class="cls-1" d="M154.7,152.92,144,155.32c-.87-3.72-1.7-7.23-2.57-11l11.2-2.44C153.34,145.61,154,149.08,154.7,152.92Z"/><path class="cls-1" d="M243,153.27l-6.62,9-8.83-5.65c1.75-3.25,3.48-6.44,5.36-9.94Z"/><path class="cls-1" d="M176.27,150.1l-10.86,1.14c-.5-3.75-1-7.24-1.47-11.09l11.4-1.25C175.65,142.69,176,146.19,176.27,150.1Z"/><path class="cls-1" d="M92,51.15C77.78,51.06,66.49,62.05,66.45,76A25.12,25.12,0,1,0,92,51.15Zm-.71,39.07A14,14,0,1,1,105.5,76.46,14.24,14.24,0,0,1,91.27,90.22Z"/><path class="cls-1" d="M315.32,62.32a25.12,25.12,0,1,0,24.73,25.31A25,25,0,0,0,315.32,62.32ZM315,101.39a13.95,13.95,0,1,1,13.89-14.1A14.21,14.21,0,0,1,315,101.39Z"/></svg>