<svg id="Layer_1" data-name="Layer 1" xmlns="http://www.w3.org/2000/svg" viewBox="0 0 405.86 408.86"><defs><style>.cls-1{fill:#fff;}</style></defs><path class="cls-1" d="M379.49,242.12c-8.59-46.63-36.42-77.75-81.35-93.21-3.71-1.27-5.25-3.46-6.38-7,5.88,0,11.45,0,17,0a34.38,34.38,0,0,0,4.87-.2c17.3-2.64,28.95-17.3,27.74-34.83C340.28,90.59,326,77.8,308.82,77.77q-25.47,0-50.94,0h-4.12c.5-1,.75-1.46,1-1.94,12.22-22.93-3-48.3-28.91-48.3q-84.78,0-169.56,0c-11,0-20,4.38-26.2,13.36-2.82,4.1-4.18,9.2-6.2,13.84v9.77a7.45,7.45,0,0,1,.59,1.25c4.06,16.51,16,26,32.86,26h54.33c-7.35,12.35-7.13,24.23-.07,36.34-6.94,0-13.34-.12-19.72,0-18.51.42-33.48,19.21-29.94,37.35a34.07,34.07,0,0,0,11.6,19.81c-7.7,6.85-12,15-11.95,25.2s4.37,18.29,11.76,25C58.23,249,57,270.91,73.25,285.8a6.52,6.52,0,0,1-.58.8C62,297,58.74,310.06,63.82,322.76c4.8,12,17,20.51,31.66,20.3,25.46-.37,50.93-.06,76.4-.16a8.64,8.64,0,0,1,6.67,2.72c30.31,29.32,66.45,40.68,107.77,32.61C348.93,366,391,304.78,379.49,242.12ZM307.65,91.7c9.78,0,17.09,5.19,19.18,13.55C329.77,117,321.34,127.86,309,128c-15.12.14-30.24,0-45.36,0H223.82q-42.23,0-84.44,0c-9.17,0-16.46-5.43-18.48-13.54a18.16,18.16,0,0,1,16.81-22.73c.81,0,1.63,0,2.45,0Q223.91,91.7,307.65,91.7ZM57.75,77.76c-9.78,0-17.11-5.19-19.21-13.52-3-12,5.64-22.75,18.53-22.78q42.39-.08,84.79,0,42,0,84.1,0c9.2,0,16.46,5.38,18.5,13.51a18.16,18.16,0,0,1-16.78,22.76c-.81,0-1.63,0-2.44,0ZM93,142c.92-.06,1.85,0,2.78,0q83.35,0,166.7,0c2.37,0,4.74.37,7.11.57-.05.3-.09.6-.13.91a125,125,0,0,0-34.9,3.24,117.23,117.23,0,0,0-53.44,29.2,8.07,8.07,0,0,1-6.12,2.42c-26.74-.08-53.48,0-80.21-.06-9.64,0-16.78-5.63-18.7-14.52C73.72,152.91,81.62,142.74,93,142ZM75.59,209.27c.73-9.27,7.89-16.83,17.27-16.94,24.14-.28,48.28-.09,72.42-.07l0-.07.12.07h-.15l-17.8,36.19c-17.63,0-36.34,0-55,0a10.55,10.55,0,0,1-2.05-.38C81.25,226.16,74.9,218.1,75.59,209.27Zm69.06,33.32v36.18H141.3c-15.58,0-31.16,0-46.74,0-9.27,0-16.49-5.61-18.41-14C73.71,254,80.63,243.29,91.79,242.8,109.52,242,127.31,242.59,144.65,242.59ZM162.25,329c-22.77,0-45.54.08-68.31,0-9.54,0-16.72-6.51-18.23-15.94-1.26-7.92,3.92-16.34,11.93-19.11a19.23,19.23,0,0,1,6.11-1.16c17.66-.09,35.32-.06,53,0a6.06,6.06,0,0,1,1,.18l-.68.67q8.1,17.61,16.22,35.29A3.06,3.06,0,0,1,162.25,329Zm100.41,37.7c-57.52.06-104.78-47.2-104.76-104.73s47.29-104.77,104.81-104.67S367.48,204.72,367.3,262.2,320.11,366.65,262.66,366.71Z"/><path class="cls-1" d="M165.31,192.19l.12.07h-.15Z"/><path class="cls-1" d="M165.44,192.27c.14,0,.25.12,0,0Z"/><path class="cls-1" d="M291.63,285.4c-1.56,10.68-8.16,17.67-18,21.71-1.17.49-2.42.8-3.8,1.24-.73,7-2.81,9.9-7.08,10s-6.57-2.83-7.42-10a30.65,30.65,0,0,1-15.68-9.56,24.79,24.79,0,0,1-6.34-16.19c0-4.47,2.68-7.65,6.64-7.86s6.88,2.81,7.29,7.27a14.13,14.13,0,0,0,13.34,12.85c8.61.65,15.25-3.52,17-10.64s-4-14.25-12.07-15.33c-3.56-.48-7.21-.57-10.69-1.4-11.84-2.81-21-13.2-21.45-24.11-.58-12.83,6.59-23.4,19.09-27.59,2.6-.88,3.34-2,3.29-4.64a6.88,6.88,0,1,1,13.75,0c-.13,3,1.1,3.89,3.62,4.76,11.2,3.88,18.87,14.1,18.82,24.7,0,4.38-2.55,7.34-6.49,7.59-4.17.26-7-2.34-7.46-6.94-.79-7.4-5.66-12.09-13.54-13-7.19-.86-14.25,3.05-16.42,9.1-2.93,8.19,3.77,16.72,13.56,17.06,7.27.25,14,1.9,19.81,6.51C289.2,267.18,293.11,275.39,291.63,285.4Z"/><path class="cls-1" d="M230.57,343.11c-2.5,1.86-5.22,1.76-7.9.45A89.2,89.2,0,0,1,193,320.28c-13.93-16.81-20.95-36.18-21.15-53.5,0-19.42,3.38-33.49,10.26-46.7,2.1-4,5.93-5.4,9.61-3.6s4.83,5.66,3,9.83c-.18.42-.41.83-.61,1.25-18.67,38.63-4.1,82.83,33.75,102.92a12.35,12.35,0,0,1,5.19,5.58C234.15,338.59,233,341.33,230.57,343.11Z"/><path class="cls-1" d="M353.36,258.42c0,17.9-3.27,31.66-9.8,44.64-2.42,4.79-6.16,6.45-10.11,4.47s-4.81-5.87-2.46-10.78c18.8-39.45,4.62-82.51-34-103.3-4.26-2.29-5.89-5.28-4.88-8.92,1.23-4.44,6.07-6.27,10.78-3.9a90.05,90.05,0,0,1,42.74,44.65C350.82,236.87,353.37,249.06,353.36,258.42Z"/><path class="cls-1" d="M280.58,178.31a7.15,7.15,0,0,1-7.26,6.91,7,7,0,1,1-.24-13.93A7.16,7.16,0,0,1,280.58,178.31Z"/><path class="cls-1" d="M259.09,345.8a6.86,6.86,0,0,1-7.14,6.92A7,7,0,1,1,252,338.8,6.86,6.86,0,0,1,259.09,345.8Z"/></svg>