<svg id="Layer_1" data-name="Layer 1" xmlns="http://www.w3.org/2000/svg" viewBox="0 0 405.86 408.86"><defs><style>.cls-1{fill:#fff;}</style></defs><path class="cls-1" d="M335.45,263.66c-11.52-11.28-25.8-17.06-42.17-18.61v-4.53q0-86.9,0-173.8c0-7.25-1.17-8.41-8.57-8.41H244.52c-.09-1.18-.18-2-.2-2.75-.16-5.91-1.44-7.21-7.21-7.22q-12,0-24.09,0H201c-4.47-13.87-14-21.85-25.89-22.3a28.51,28.51,0,0,0-17.22,4.57c-6.42,4.21-10.23,10.26-12.14,17.73h-4q-16.07,0-32.11,0c-5.8,0-7,1.16-7.16,6.83,0,.91-.13,1.81-.23,3.14H55.85c-7,0-8.19,1.2-8.19,8v293.5c0,.93,0,1.87,0,2.79.22,3,1.83,4.7,4.82,5,1.39.13,2.79.09,4.19.09q91.45,0,182.91-.05a15.24,15.24,0,0,1,8,2.46,195.1,195.1,0,0,0,20.43,10.28c4,1.69,8.5,2.09,12.77,3.08h15.37a10,10,0,0,1,1.87-.69c28.2-4.93,47.56-20.84,56.15-48S355.74,283.53,335.45,263.66ZM112.68,58.11h35.73c5,0,6.12-1,6.82-5.8,1.44-9.89,9.09-16.73,18.47-16.51S190.35,43,191.49,53c.41,3.64,2.12,5.14,6.07,5.15,10.82,0,21.63,0,32.44,0h4.14V96.86H112.68Zm-55,299.26V68.63a24.86,24.86,0,0,1,2.78-.31c12.92,0,25.84.05,38.76-.07,2.57,0,3.42.69,3.38,3.33-.15,9.42-.08,18.85,0,28.27,0,5.61,1.48,7.1,6.94,7.1H237.27c5.43,0,7-1.59,7-7.1,0-10.33,0-20.66,0-31.27H283V244.41c-6.43,1.67-13,2.69-19.05,5.14-6.28,2.56-12.14,6.26-17.9,9.91a12.79,12.79,0,0,1-7.33,2.36q-75.93-.09-151.86,0c-1.4,0-2.8,0-4.19.1-2.89.22-4.49,1.9-4.56,4.73s1.63,4.51,4.38,5a21.32,21.32,0,0,0,3.49.08h147.2c-2.23,3.67-4.11,7-6.25,10.09a4.06,4.06,0,0,1-2.93,1.17c-5.7.11-11.4.05-17.1.05H85.8a17.61,17.61,0,0,0-3.49.1c-2.74.56-4.32,2.3-4.15,5.16a4.4,4.4,0,0,0,4.43,4.5c1.27.1,2.56.07,3.84.07H222.31a69.53,69.53,0,0,0,11.74,64.54Zm230.44,16.31a59.39,59.39,0,1,1,59.62-59.4A59.41,59.41,0,0,1,288.12,373.68Z"/><path class="cls-1" d="M242.23,166.88c2.75-1.77,4.86-3.44,3.86-6.7s-3.76-3.73-6.72-3.58a5.4,5.4,0,0,0-.7,0c-2.1.37-3.37-.54-4.52-2.32-4.09-6.34-8.32-12.61-12.55-18.86A16.15,16.15,0,0,0,207.44,128q-37,0-74,0a16.16,16.16,0,0,0-14.15,7.48c-3.53,5.19-7.16,10.32-10.42,15.68-2.24,3.68-4.45,6.43-9.48,5.72-1.36-.2-3.84,1.87-4.42,3.42-.51,1.35.86,3.47,1.61,5.15a2,2,0,0,0,1.07.84c-1.35,3.78-3.62,7.1-3.5,10.35.71,17.88,2,35.73,3.06,53.61a12.59,12.59,0,0,0,12.3,12.22c4.88.1,9.77.11,14.66,0a12.49,12.49,0,0,0,12.07-11.72c.08-1.13.11-2.25.16-3.41h68.19c0,.81.1,1.38.12,1.95.27,8.31,5.15,13.15,13.37,13.22,4.3,0,8.61.06,12.91,0,6.93-.11,12.28-5,12.71-11.84,1-16.47,1.81-33,2.93-49.43C247,175.86,246.87,170.94,242.23,166.88Zm-126.71-8.09c3.73-5.61,7.54-11.16,11.18-16.82a8.5,8.5,0,0,1,7.79-4.29q35.91.07,71.83,0c3,0,5.47.78,7.2,3.38q9.16,13.77,18.35,27.53a4.76,4.76,0,0,1,.33,1.13H108.3C110.85,165.87,113.17,162.32,115.52,158.79Zm6.08,73.89h-9.72c-4.24,0-4.92-.77-4.75-5.4h19.16C126.51,231.85,125.79,232.66,121.6,232.68Zm107.5,0c-3.26,0-6.52,0-9.77,0-4.34,0-4.93-.68-4.72-5.41h18.92C234,231.72,233.26,232.65,229.1,232.68Zm5-15.65H106.77c-.87-12.26-1.73-24.5-2.62-37H236.7C235.84,192.38,235,204.62,234.12,217Z"/><path class="cls-1" d="M194,308.41c.16,1.64-1.19,3.74-2.46,5.1-.74.79-2.6.72-4,.73q-51.45,0-102.9,0a10.28,10.28,0,0,1-3.42-.45c-2.39-.85-3.79-2.88-3-5.15.59-1.65,2.41-3.05,4-4.05.94-.59,2.49-.22,3.77-.22H186.55c1.28,0,2.82-.34,3.77.24C191.85,305.53,193.89,307,194,308.41Z"/><path class="cls-1" d="M296.77,359.61c-22.94,3.42-44.56-9.93-51.07-31.56-1.25-4.14-.28-6.7,2.92-7.71,2.95-.92,5.07.62,6.44,4.67,5.6,16.58,19.82,26.19,37.11,25.08,16-1,29.1-12.86,32.41-29.27,2.91-14.46-4.47-30.1-17.74-37.54s-30.18-5.66-40.94,4.18a6,6,0,0,0-.6,1c1.17-.05,2-.13,2.78-.12,3.13,0,5.35,1.94,5.45,4.66s-2,4.9-5.09,5.15c-4.51.37-9,.67-13.57.87-3.78.16-5.65-1.44-6-5.21-.38-4.16-.64-8.34-.82-12.52s1.41-6.41,4.42-6.66,4.8,1.77,5.56,6.21c.91-.67,1.72-1.25,2.5-1.84,14.93-11.32,31.18-13.68,48.15-5.76S334.4,295.38,335,314C335.77,336.18,318.54,356.35,296.77,359.61Z"/><path class="cls-1" d="M297.21,333.35a4.38,4.38,0,0,1-6.32.1,113.13,113.13,0,0,1-8.67-9.51,6.43,6.43,0,0,1-.91-3.62c-.11-3.36,0-6.73,0-10.1H281c0-3.37-.06-6.74,0-10.11s2-5.68,4.77-5.83,5.11,2.16,5.22,5.75c.15,5.46,0,10.93.24,16.37a11.08,11.08,0,0,0,2,5.15c1.28,1.91,3.14,3.43,4.55,5.26C299.62,329.11,299.3,331.45,297.21,333.35Z"/><path class="cls-1" d="M197.56,184.6c-8.95,0-17.91,0-26.86,0-9.31,0-18.61-.05-27.92,0-5.25,0-7.31,3.2-5.33,8.07,2.1,5.15,4.38,10.24,6.42,15.42,1.18,3,3.2,4.28,6.39,4.27,13.38-.06,26.75-.08,40.13,0,3.33,0,5.45-1.23,6.68-4.39,1.94-5,4.13-9.84,6.16-14.77C205.51,187.7,203.49,184.62,197.56,184.6Zm-14.15,17.84c-8.72,0-17.45-.24-26.16.11-3.9.15-6.16-.9-7-4.73a32.42,32.42,0,0,0-1-3.09h41.91C190.8,200.75,189.09,202.44,183.41,202.44Z"/><path class="cls-1" d="M230,194.57c-5.17,1.58-10.49,2.69-15.34,3.89-3.06-.29-4.85-1.55-5.35-4.17s.61-4.63,2.89-5.29a101.6,101.6,0,0,1,15.52-3.46c1.44-.18,3.84,2,4.66,3.62A3.85,3.85,0,0,1,230,194.57Z"/><path class="cls-1" d="M131.56,193.81a4.8,4.8,0,0,1-5.87,4.45q-6.81-1.39-13.54-3.2c-3.18-.86-4.49-3.15-3.8-6,.64-2.68,3.17-4.13,6.24-3.45,4.41,1,8.83,2,13.21,3.1A4.58,4.58,0,0,1,131.56,193.81Z"/></svg>