<svg id="Layer_1" data-name="Layer 1" xmlns="http://www.w3.org/2000/svg" viewBox="0 0 405.86 408.86"><defs><style>.cls-1{fill:#fff;}</style></defs><path class="cls-1" d="M350.52,54.63a27.12,27.12,0,0,0-.38-4.85C348.05,38.21,338.28,28,323.46,28c-53.62.26-107.24.1-160.87.11-14.77,0-29.54-.14-44.31.1A24.46,24.46,0,0,0,94.44,52.52c0,3.93,0,7.86,0,12.28-1.44,0-2.37,0-3.29,0-5.21.23-10.57-.21-15.62.85C63.92,68.09,57,78.1,57,91.36q0,130.86,0,261.72a33.39,33.39,0,0,0,.93,8.28c3,11.7,12.42,18.64,25.33,18.66q47.12.08,94.22,0,54.27,0,108.53,0c15.83,0,26.11-10.47,26.13-26.28,0-3.34,0-6.68,0-10.59,5.36,0,10.36.34,15.3-.06,13.79-1.12,23.1-11.44,23.1-25.34Q350.55,186.19,350.52,54.63ZM301.09,351a35.07,35.07,0,0,1-.95,7.91,13.39,13.39,0,0,1-12,10.06c-1.38.12-2.78.13-4.18.13q-99.94,0-199.9,0a24.47,24.47,0,0,1-7.21-.83c-6.39-2-9.42-7.14-9.43-15.33q0-65.42,0-130.83,0-64.89,0-129.79a36.34,36.34,0,0,1,.4-5.9A13.3,13.3,0,0,1,79.45,75.53a31.07,31.07,0,0,1,3.48-.17q101.34,0,202.69.11a22.32,22.32,0,0,1,10.11,2.86c3.62,2,5.3,5.71,5.38,10,0,1.16,0,2.33,0,3.49Q301.13,221.38,301.09,351Zm38-36.64a35.55,35.55,0,0,1-1.18,8.57,13,13,0,0,1-11.52,9.69c-3.82.28-7.67.16-11.5.19-.92,0-1.84-.1-3.35-.19v-4.77q0-118.09.05-236.19c0-7.68-1.76-14.48-7.3-20a23,23,0,0,0-16.49-7.18c-12-.08-24-.06-35.94-.06q-70.63,0-141.29,0h-4.86c.25-5.3,0-10.45.86-15.4,1-5.52,6.1-9.31,11.74-9.82,1.15-.1,2.32-.13,3.48-.13q100.65,0,201.3.09a24,24,0,0,1,9.9,2.45c3.48,1.67,5.32,5.1,5.8,9a48.4,48.4,0,0,1,.34,5.9Q339.16,185.44,339.1,314.35Z"/><path class="cls-1" d="M284.59,106a18.63,18.63,0,0,0-19.1-16.24c-10.09.35-18.73,8.56-18.79,18.37,0,3.49,1.11,7,1.57,9.64l-26.2,27.77c-8.07-3.41-11.27-3.44-18.63-.85a4.2,4.2,0,0,1-3.48-.8c-7.13-6.32-14.09-12.84-21.23-19.16-1.62-1.43-1.36-2.61-1-4.47.59-3.47,1.3-7.23.57-10.57-2.44-11.12-13.5-17.35-24.36-14.26a19.23,19.23,0,0,0-13,24.52c.9,2.81.35,4.33-1.67,6.19q-12.19,11.22-24.09,22.75c-1.89,1.83-3.31,2.31-6,1.3a18.26,18.26,0,0,0-19.78,3.73c-5.76,5.22-7.57,11.93-5.71,19.36a19.38,19.38,0,0,0,24.4,13.87,19.18,19.18,0,0,0,13-24.19c-1-3.13-.29-4.75,1.88-6.79,8.06-7.55,16-15.26,23.86-23,1.54-1.51,2.75-1.84,4.83-1a18.43,18.43,0,0,0,15.83-.49,3.83,3.83,0,0,1,3.39.63c6.82,6.16,13.45,12.51,20.24,18.69,1.67,1.52,2.09,2.71,1.3,5a19.07,19.07,0,0,0,13.11,24.66c10.8,3,22.15-3.48,24.11-14.56.79-4.4-.41-9.16-.65-12.93l23.68-25c.32-.34.62-.85,1-.94,1.17-.28,2.58-.88,3.55-.5C271.66,132.42,286.34,121.32,284.59,106ZM102.34,178a8.59,8.59,0,0,1,.31-17.18,8.66,8.66,0,0,1,8.52,8.77A8.53,8.53,0,0,1,102.34,178ZM159,123.85a8.94,8.94,0,0,1-8.76-8.59,8.61,8.61,0,1,1,8.76,8.59Zm52.83,47.55a8.45,8.45,0,0,1-8.53-8.66,8.54,8.54,0,0,1,8.9-8.3,8.48,8.48,0,1,1-.37,17ZM266,118.34a8.48,8.48,0,1,1,8.56-8.49A8.16,8.16,0,0,1,266,118.34Z"/><path class="cls-1" d="M133.88,253.25a46.14,46.14,0,0,0,0,92.27c25.31.11,46.25-21.07,46.35-46.88C180.26,274.25,158.81,253.23,133.88,253.25Zm5.93,11.53c11,.43,27,13.24,28.35,29.37H139.81Zm-38.48,21.74c4.76-12.29,14-19.52,27.24-22.3,0,11,0,21.71,0,32.37a3.3,3.3,0,0,1-1,2.07c-7.09,7.18-14.23,14.3-21.66,21.74C98.55,309.6,96.73,298.37,101.33,286.52Zm47.45,43.94c-11.82,5.64-23.3,4.56-34.84-2.92,7.36-7.33,14.25-14.22,21.2-21.05a3.84,3.84,0,0,1,2.39-1.12c10-.08,19.95-.05,30.45-.05C165.58,317.13,159.23,325.48,148.78,330.46Z"/><path class="cls-1" d="M280.67,223.15a4.75,4.75,0,0,1-4.73,4.66c-1.27.1-2.55.07-3.83.07H94.58c-4.8,0-6.87-2-6.55-6,.2-2.51,1.46-4.16,4-4.59a26,26,0,0,1,4.5-.32q87.89,0,175.78,0a15.48,15.48,0,0,1,4.82.49A5,5,0,0,1,280.67,223.15Z"/><path class="cls-1" d="M280.15,298.45c.05,3.92-2,5.93-6.48,5.93q-37.63.08-75.25,0c-4.36,0-6.48-2-6.47-5.58s2.05-5.37,6.51-5.38h75.25C278.07,293.44,280.11,295.05,280.15,298.45Z"/><path class="cls-1" d="M280.15,336.87c.06,3.91-2,5.94-6.46,5.95q-37.62.06-75.25,0c-4.35,0-6.49-1.94-6.49-5.55s2.09-5.43,6.48-5.44q18.81,0,37.63,0h37.63C278,331.84,280.1,333.49,280.15,336.87Z"/><path class="cls-1" d="M274.43,266.29c-9.3.09-18.6,0-27.9,0H236.06c-12.67,0-25.35,0-38,0-4,0-5.78-1.55-6.06-4.77-.29-3.44,1.37-5.52,4.83-6a16.13,16.13,0,0,1,2.08-.13h74.66c3,0,5.64.52,6.43,4C280.9,263.42,278.71,266.25,274.43,266.29Z"/></svg>