<?xml version="1.0" encoding="UTF-8"?>
<!DOCTYPE svg PUBLIC "-//W3C//DTD SVG 1.1//EN" "http://www.w3.org/Graphics/SVG/1.1/DTD/svg11.dtd">
<!-- Creator: CorelDRAW 2021 (64-Bit) -->
<svg xmlns="http://www.w3.org/2000/svg" xml:space="preserve" width="6.75154in" height="6.7828in" version="1.1" style="shape-rendering:geometricPrecision; text-rendering:geometricPrecision; image-rendering:optimizeQuality; fill-rule:evenodd; clip-rule:evenodd"
viewBox="0 0 6745.93 6777.16"
 xmlns:xlink="http://www.w3.org/1999/xlink"
 xmlns:xodm="http://www.corel.com/coreldraw/odm/2003">
 <defs>
  <style type="text/css">
   <![CDATA[
    .fil0 {fill:#FEFEFE}
    .fil2 {fill:#ED3237}
    .fil3 {fill:#373435;fill-rule:nonzero}
    .fil1 {fill:#008349;fill-rule:nonzero}
   ]]>
  </style>
 </defs>
 <g id="Layer_x0020_1">
  <metadata id="CorelCorpID_0Corel-Layer"/>
  <g id="_2480565316576">
   <g>
    <path class="fil0" d="M3372.97 31.23c1357.75,0 2458.36,1084.16 2458.36,2421.56 0,1337.4 -1100.62,2421.56 -2458.36,2421.56 -1357.74,0 -2458.39,-1084.16 -2458.39,-2421.56 0,-1337.4 1100.64,-2421.56 2458.39,-2421.56z"/>
    <path id="_1" class="fil1" d="M5862.65 2452.79l-62.64 0 0 0 -3.15 -123.02 -9.37 -121.38 -15.43 -119.61 -21.34 -117.69 -27.09 -115.62 -32.7 -113.41 -38.14 -111.04 -43.44 -108.53 -48.59 -105.86 -53.59 -103.06 -58.42 -100.09 -63.12 -96.98 -67.66 -93.72 -72.04 -90.31 -76.28 -86.74 -80.36 -83.03 -84.29 -79.16 -88.07 -75.14 -91.69 -70.98 -95.16 -66.66 -98.48 -62.19 -101.64 -57.56 -104.65 -52.8 -107.51 -47.87 -110.22 -42.81 -112.77 -37.59 -115.18 -32.21 -117.43 -26.7 -119.53 -21.03 -121.48 -15.2 -123.29 -9.24 -124.95 -3.11 0 -62.46 128.07 3.19 126.41 9.46 124.58 15.6 122.59 21.56 120.45 27.38 118.15 33.05 115.68 38.55 113.06 43.91 110.28 49.11 107.35 54.16 104.26 59.05 101.01 63.79 97.61 68.37 94.05 72.8 90.33 77.08 86.46 81.2 82.44 85.17 78.25 88.99 73.91 92.65 69.42 96.16 64.77 99.52 59.96 102.72 54.99 105.77 49.87 108.67 44.59 111.41 39.16 113.99 33.56 116.42 27.81 118.69 21.9 120.81 15.84 122.77 9.61 124.57 3.24 126.21 0 0zm-2489.68 2452.79l0 -62.46 0 0 124.95 -3.11 123.29 -9.24 121.48 -15.2 119.53 -21.03 117.43 -26.7 115.18 -32.21 112.77 -37.59 110.22 -42.81 107.51 -47.87 104.65 -52.8 101.64 -57.56 98.48 -62.19 95.16 -66.66 91.69 -70.98 88.07 -75.14 84.29 -79.16 80.36 -83.03 76.28 -86.74 72.04 -90.31 67.66 -93.72 63.12 -96.98 58.42 -100.09 53.59 -103.06 48.59 -105.86 43.44 -108.53 38.14 -111.04 32.7 -113.41 27.09 -115.62 21.34 -117.69 15.43 -119.61 9.37 -121.38 3.15 -123.02 62.64 0 -3.24 126.21 -9.61 124.57 -15.84 122.77 -21.9 120.81 -27.81 118.69 -33.56 116.42 -39.16 113.99 -44.59 111.41 -49.87 108.67 -54.99 105.77 -59.96 102.72 -64.77 99.52 -69.42 96.16 -73.91 92.65 -78.25 88.99 -82.44 85.17 -86.46 81.2 -90.33 77.08 -94.05 72.8 -97.61 68.37 -101.01 63.79 -104.26 59.05 -107.35 54.16 -110.28 49.11 -113.06 43.91 -115.68 38.55 -118.15 33.05 -120.45 27.38 -122.59 21.56 -124.58 15.6 -126.41 9.46 -128.07 3.19 0 0zm-2489.71 -2452.79l62.64 0 0 0 3.15 123.02 9.37 121.38 15.43 119.61 21.34 117.69 27.09 115.62 32.69 113.41 38.14 111.04 43.44 108.53 48.59 105.86 53.59 103.06 58.43 100.09 63.12 96.98 67.66 93.72 72.05 90.31 76.28 86.74 80.36 83.03 84.29 79.16 88.07 75.14 91.69 70.98 95.16 66.66 98.48 62.19 101.64 57.56 104.65 52.8 107.51 47.87 110.22 42.81 112.77 37.59 115.18 32.21 117.43 26.7 119.53 21.03 121.48 15.2 123.29 9.24 124.95 3.11 0 62.46 -128.07 -3.19 -126.41 -9.46 -124.58 -15.6 -122.59 -21.56 -120.45 -27.38 -118.14 -33.05 -115.68 -38.55 -113.06 -43.91 -110.28 -49.11 -107.35 -54.16 -104.26 -59.05 -101.01 -63.79 -97.61 -68.37 -94.05 -72.8 -90.33 -77.08 -86.46 -81.2 -82.44 -85.17 -78.25 -88.99 -73.92 -92.65 -69.42 -96.16 -64.77 -99.52 -59.96 -102.72 -54.99 -105.77 -49.87 -108.67 -44.6 -111.41 -39.16 -113.99 -33.56 -116.42 -27.81 -118.69 -21.9 -120.81 -15.84 -122.77 -9.62 -124.57 -3.24 -126.21 0 0zm2489.71 -2452.79l0 62.46 0 0 -124.95 3.11 -123.29 9.24 -121.48 15.2 -119.53 21.03 -117.43 26.7 -115.18 32.21 -112.77 37.59 -110.22 42.81 -107.51 47.87 -104.65 52.8 -101.64 57.56 -98.48 62.19 -95.16 66.66 -91.69 70.98 -88.07 75.14 -84.29 79.16 -80.36 83.03 -76.28 86.74 -72.05 90.31 -67.66 93.72 -63.12 96.98 -58.43 100.09 -53.59 103.06 -48.59 105.86 -43.44 108.53 -38.14 111.04 -32.69 113.41 -27.09 115.62 -21.34 117.69 -15.43 119.61 -9.37 121.38 -3.15 123.02 -62.64 0 3.24 -126.21 9.62 -124.57 15.84 -122.77 21.9 -120.81 27.81 -118.69 33.56 -116.42 39.16 -113.99 44.6 -111.41 49.87 -108.67 54.99 -105.77 59.96 -102.72 64.77 -99.52 69.42 -96.16 73.92 -92.65 78.25 -88.99 82.44 -85.17 86.46 -81.2 90.33 -77.08 94.05 -72.8 97.61 -68.37 101.01 -63.79 104.26 -59.05 107.35 -54.16 110.28 -49.11 113.06 -43.91 115.68 -38.55 118.14 -33.05 120.45 -27.38 122.59 -21.56 124.58 -15.6 126.41 -9.46 128.07 -3.19 0 0z"/>
   </g>
   <path class="fil1" d="M1583.29 3796.83l-32.16 -53.97c44.63,-49.32 73.37,-83.22 86.31,-101.59 16.35,-23.26 23.7,-43.42 22.44,-60.38 -1.15,-13.43 -9.63,-33.63 -25.74,-60.69 -9.47,-15.85 -18.08,-29.86 -25.78,-41.84 -62.14,35.39 -115.02,66.89 -158.47,94.7l-31.03 -52.04c61.26,-31.17 127.92,-67.19 199.93,-108.21 67.66,-38.53 126.32,-73.85 175.78,-105.73l23.5 39.42c5.03,8.41 11.64,18.84 19.92,31.41 8.28,12.55 17.35,27.07 27.24,43.7 48.69,81.63 43.99,139.05 -14.14,172.15 -48.26,27.49 -95.91,23.93 -142.89,-10.85l-2.86 1.64c5.84,24.18 1.07,49.14 -14.43,74.99 -12.98,21.58 -48.8,67.29 -107.63,137.27zm219.7 -239.72c45.8,-26.08 50.79,-69.08 14.97,-129.16 -12.8,-21.49 -24.69,-38.77 -35.98,-51.91 -32.66,20.41 -77.81,47 -135.3,79.76 6.33,11.32 12.52,22.16 18.66,32.47 43.66,73.22 89.56,96.21 137.66,68.84z"/>
   <path class="fil1" d="M5017.54 3249.34l40.09 24.18c-23.71,36.03 -47.18,73.86 -70.32,113.37 36.89,21.12 83.86,47.64 140.87,79.5 63.05,35.23 129.69,71.23 199.97,107.97l-30.1 51.42c-64.62,-39.05 -130.05,-77.14 -196.34,-114.19 -56.21,-31.41 -103.62,-57.17 -142.22,-77.21 -16.21,27.73 -37.83,67.36 -64.99,118.88l-40.51 -24.55 163.55 -279.38z"/>
   <path class="fil1" d="M1892.99 4077.16l-39.78 30.3 -172.42 -199.21c54.63,-41.25 113.79,-88.15 177.42,-140.76 59.8,-49.43 111.35,-94.06 154.56,-133.7l161.77 186.9 -39.69 29.36c-37.24,-46.95 -77.74,-95.85 -121.71,-146.65 -25.5,22.84 -60.66,52.78 -105.5,89.82 37.89,43.79 72.69,82.07 104.41,114.6l-38.01 31.44c-30.08,-37.84 -63.1,-77.55 -99.04,-119.05 -43.7,36.12 -84.02,70.77 -121.09,103.86 47.41,54.78 93.75,105.73 139.07,153.09z"/>
   <path class="fil1" d="M2386.31 4221.48c-37.87,49.53 -87.07,81.19 -147.67,95.07 -60.7,13.81 -119.25,0.13 -175.69,-41.09 -18.39,-13.43 -48.14,-37.1 -89.23,-70.86 43.91,-52.07 90.87,-110.71 140.76,-175.93 46.9,-61.32 86.75,-116.19 119.56,-164.43l29.17 21.29c7.06,5.15 18.02,12.76 32.93,22.84 15.01,10.07 24.72,16.77 29.35,20.14 62.39,45.57 96.97,94.33 103.53,146.28 6.59,51.94 -7.64,100.82 -42.72,146.69zm-55.12 -21.88c29.64,-38.74 41.74,-80.23 36.61,-124.45 -5.15,-44.27 -33.86,-85.52 -86.32,-123.82 -7.43,-5.43 -18.25,-11.96 -32.56,-19.63 -29.6,41.67 -60.82,83.95 -93.58,126.81 -35.98,47.04 -71.58,95.59 -106.73,145.43 12.01,13.09 24.68,24.4 37.71,33.94 46.74,34.13 91.83,45.89 135.43,35.2 43.63,-10.7 80.1,-35.12 109.43,-73.47z"/>
   <path class="fil1" d="M5154.69 3850.65l-30.29 34.32c-2.84,-2.4 -66.89,-9.66 -192.12,-21.6 -131.31,-12.89 -211.06,-24.35 -239.34,-34.6l-2.22 2.51c43.16,31.25 79.35,59.17 108.37,83.6 56.63,47.72 114.87,94.6 174.67,140.78l-36.33 41.17c-52.39,-48.94 -108.78,-98.96 -169.29,-149.97 -59.47,-50.1 -112.89,-92.61 -159.96,-127.47l41.52 -47.04c4.66,3.92 64.95,11.66 180.63,23.03 121.45,12.3 196.92,24.52 226.14,36.6l2.15 -2.42c-43.52,-31.89 -79.75,-59.92 -108.42,-84.08 -62.32,-52.52 -116.28,-96.08 -161.78,-130.35l37.01 -41.93c42.19,40.38 93.09,85.75 152.56,135.87 60.51,50.99 119.43,98.18 176.7,141.59z"/>
   <path class="fil1" d="M4796.28 4157.85l27.37 41.38 -218.13 150.55c-37.29,-56.79 -79.92,-118.46 -127.99,-184.97 -45.17,-62.51 -86.17,-116.6 -122.78,-162.09l204.66 -141.23 26.43 41.2c-51.12,32.16 -104.49,67.35 -160.09,105.73 21.01,26.78 48.46,63.62 82.33,110.5 47.95,-33.11 90,-63.62 125.92,-91.68l28.75 39.75c-41.18,25.97 -84.58,54.68 -130.03,86.06 33.02,45.69 64.83,87.97 95.32,126.93 59.97,-41.38 115.99,-82.11 168.23,-122.11z"/>
   <path class="fil1" d="M2813.17 4593.82l-22.49 43.66c-28.35,-2.43 -57.29,-9.4 -87.01,-20.99 -70.58,-27.55 -115.84,-67.27 -135.75,-119.2 -19.96,-51.93 -18.69,-105.41 3.77,-160.35 23.56,-57.63 63.71,-99.55 120.25,-125.84 56.68,-26.33 118.44,-26.35 185.33,-0.24 18.49,7.22 36.82,17.46 55.17,31l-28.35 44.86c-20.61,-16.58 -40.13,-28.4 -58.62,-35.62 -49.66,-19.38 -93.5,-18.84 -131.51,1.46 -38.01,20.32 -65.98,52.36 -83.92,96.24 -18.26,44.68 -19.21,88.69 -2.71,132.06 16.55,43.55 50.78,75.39 102.86,95.72 19.94,7.78 47.57,13.5 82.96,17.23z"/>
   <path class="fil1" d="M4463.67 4385.66l17.35 45.84c-21.15,18.61 -46.12,34.54 -75.06,47.86 -68.76,31.65 -129.38,36.94 -181.84,15.76 -52.46,-21.16 -91.62,-58.55 -117.42,-112.06 -27.06,-56.12 -31.02,-113.41 -12.16,-171.73 18.98,-58.48 61.07,-102.61 126.25,-132.62 18,-8.3 38.17,-14.39 60.82,-18.28l14.26 50.83c-26.47,3.43 -48.64,9.32 -66.67,17.62 -48.37,22.26 -77.84,53.97 -88.59,95 -10.72,41 -5.82,82.84 14.78,125.57 20.98,43.52 53.26,74.21 96.98,92.01 43.89,17.84 91.05,15.11 141.81,-8.26 19.43,-8.95 42.57,-24.79 69.47,-47.54z"/>
   <path class="fil1" d="M3261.2 4710.4l-63.46 -7.36c-13.46,-64.49 -23.86,-107.32 -31.1,-128.44 -9.13,-26.76 -21.21,-44.66 -35.82,-53.86 -11.64,-7.19 -33.29,-12.73 -65.06,-16.4 -18.66,-2.17 -35.29,-3.89 -49.72,-5.1 -8.5,69.81 -14.57,130.03 -17.98,180.65l-61.22 -7.09c11.39,-66.54 22.08,-140.25 31.91,-221.11 9.24,-76 15.68,-143 19.39,-200.83l46.39 5.39c9.88,1.15 22.36,2.27 37.61,3.38 15.27,1.06 32.59,2.76 52.14,5.02 96,11.12 140.11,49.34 132.19,114.61 -6.61,54.21 -38.18,89.25 -94.89,105.02l-0.41 3.19c23.28,9.99 40.84,28.76 52.6,56.36 9.85,23.11 25.65,78.59 47.41,166.59zm-63.68 -315.67c6.25,-51.44 -25.89,-81.18 -96.53,-89.37 -25.27,-2.93 -46.55,-4.06 -64.1,-3.19 -2.99,37.81 -8.41,89.02 -16.27,153.62 13.1,1.85 25.65,3.54 37.78,4.94 86.15,9.99 132.55,-11.99 139.11,-66z"/>
   <path class="fil1" d="M4045.01 4500.13c20.22,77.97 -24.79,130.71 -134.95,158.01 -40.37,10 -77.28,14.34 -110.9,13l-1.57 -52.46c39.12,3.3 74.83,1.01 107.14,-7.01 72.83,-18.06 103.93,-47.38 93.43,-87.89 -5.29,-20.38 -19.26,-35.56 -41.89,-45.47 -15.13,-6.59 -43.26,-13.4 -84.55,-20.52 -43.47,-7.39 -74.82,-16.27 -94.1,-26.77 -26.89,-14.52 -44.06,-36.66 -51.82,-66.59 -8.12,-31.32 -3.73,-59.4 13.32,-84.56 18.86,-27.97 50.9,-47.54 95.87,-58.67 50.97,-12.65 86.67,-18.04 107.22,-16.13l5.25 52.15c-35.07,-2.02 -71.02,1.52 -107.64,10.58 -55.02,13.65 -77.84,38.59 -68.43,74.88 4.55,17.47 16.33,30.19 35.17,38.05 12.21,4.79 37.83,10.39 76.77,16.61 44.48,7.25 77.63,16.27 99.4,27.32 32.76,16.58 53.51,41.67 62.27,75.46z"/>
   <path class="fil1" d="M3676.04 4645.41l2.56 49.2 -265.9 23.8c-3.25,-67.38 -8.61,-141.64 -16.18,-222.71 -7.13,-76.21 -14.97,-143.09 -23.41,-200.38l249.49 -22.33 1.81 48.61c-60.74,2.85 -124.92,7.26 -192.73,13.33 4.5,33.5 9.41,78.79 14.76,135.93 58.46,-5.23 110.48,-11.1 155.96,-17.86l4.53 48.46c-48.94,2.37 -101.19,6.04 -156.59,11.01 5.22,55.68 11.1,107.82 17.58,156.48 73.08,-6.55 142.44,-14.43 208.13,-23.54z"/>
   <path class="fil1" d="M4064.96 335.06l-12.79 44.29c-41.95,-12.54 -85.61,-24.31 -130.86,-35.34 -10.64,40.42 -23.83,91.83 -39.51,154.08 -17.37,68.86 -34.46,141.37 -51.31,217.46l-58.85 -14.35c20.69,-71.39 40.19,-143.25 58.46,-215.71 15.46,-61.39 27.77,-113.02 36.91,-154.74 -31.75,-7.73 -76.66,-17.29 -134.81,-28.83l13.04 -44.8 319.75 77.93z"/>
   <path class="fil1" d="M3220.71 664.72l-62.51 6.4c-4.48,-70.47 -10.97,-144.67 -19.6,-222.57 -8.47,-76.56 -17.55,-143.33 -27.12,-200.04l62.48 -6.43c3.5,59.38 9.33,126.36 17.6,201.04 8.65,78.34 18.4,152.21 29.14,221.59z"/>
   <path class="fil1" d="M3605.3 556.56c-4.07,80.34 -62.91,117.69 -176.42,111.87 -41.56,-2.16 -78.14,-8.71 -109.88,-19.7l14.23 -50.58c36.41,14.48 71.22,22.63 104.55,24.34 75,3.85 113.56,-15.15 115.67,-56.87 1.06,-21.02 -7.75,-39.57 -26.41,-55.57 -12.48,-10.69 -37.36,-25.37 -74.68,-44.12 -39.33,-19.63 -66.62,-37.21 -81.91,-52.85 -21.35,-21.61 -31.1,-47.78 -29.56,-78.58 1.62,-32.28 14.26,-57.84 38.09,-76.91 26.45,-21.3 62.92,-30.7 109.24,-28.31 52.53,2.7 88.28,7.88 107.36,15.64l-10.66 51.33c-32.89,-12.06 -68.31,-19.11 -106.03,-21.05 -56.72,-2.92 -86,14.33 -87.9,51.72 -0.9,18.02 6.57,33.56 22.21,46.53 10.24,8.1 33.04,20.9 68.42,38.09 40.33,19.81 69.32,38.04 86.78,54.88 26.36,25.33 38.67,55.33 36.9,90.13z"/>
   <path class="fil1" d="M4329.17 920.85l-63.43 -28.88c6.27,-13.24 13.31,-60.48 21.16,-141.75l-173.55 -79.02c-57.44,57.46 -89.52,93.33 -96.28,107.55l-60.74 -27.66c3.44,-7.28 59.19,-58.62 167.29,-153.9 107.99,-95.19 164.82,-148.73 170.42,-160.55l69.79 31.77c-5.5,11.62 -11.35,87.15 -17.67,226.8 -6.15,139.61 -11.84,214.83 -16.98,225.65zm-37.78 -215.7c7.82,-137.27 13.45,-209.44 16.91,-216.72l-3.4 -1.54c-2.88,6.05 -56.39,56.56 -160.57,151.3l147.06 66.96z"/>
   <path class="fil1" d="M3090.38 671.67l-70.3 17.13c-0.57,-2.27 -17.6,-17.65 -50.84,-46.21 -38.58,-32.99 -72.86,-59.69 -102.91,-79.95 -40.79,-27.51 -68.8,-39.4 -84.05,-35.69l-9.97 2.42c12.75,49.42 31.65,118.1 56.69,206.01l-60.42 14.7c-13.72,-66.17 -30.7,-138.78 -51.1,-217.81 -19.18,-74.28 -37.68,-139.17 -55.36,-194.51l60.42 -14.72c12.3,56.65 25.92,113.89 40.88,171.83l7.46 -1.81c11.74,-2.87 34.15,-36.95 67.31,-102.23 33.09,-65.44 48.8,-101.2 47.19,-107.49l66.78 -16.27c1.62,6.27 -14.45,38 -48.31,95.09 -33.85,56.98 -59.89,96.18 -78.04,117.48l0.82 3.14c26.95,3.32 78.79,35.29 155.48,95.75 70.54,55.79 106.65,86.75 108.28,93.14z"/>
   <path class="fil1" d="M4640.19 1172.58l-36.11 -28.5c2.36,-2.85 7.62,-65.65 15.62,-188.34 8.72,-128.71 17.75,-206.94 27.28,-234.89l-2.63 -2.11c-30.53,43.15 -57.82,79.35 -81.84,108.44 -46.89,56.8 -92.88,115.16 -138.07,175.01l-43.34 -34.24c48.28,-52.66 97.53,-109.32 147.63,-170.02 49.25,-59.65 90.93,-113.13 124.97,-160.17l49.51 39.12c-3.85,4.65 -9.75,63.8 -17.45,177.14 -8.45,119.03 -18.39,193.11 -29.78,222.04l2.56 2.03c31.1,-43.52 58.57,-79.76 82.29,-108.48 51.61,-62.52 94.34,-116.6 127.81,-162.09l44.14 34.86c-39.84,42.44 -84.51,93.56 -133.76,153.23 -50.12,60.67 -96.36,119.7 -138.84,176.96z"/>
   <path class="fil1" d="M2701.8 776.98l-61.63 32.08c-7.04,-12.89 -41.43,-46.95 -103.13,-102.18l-168.58 87.73c12.54,79.57 22.6,126.28 30.18,140.15l-59.02 30.72c-3.86,-7.09 -12.4,-81.65 -25.48,-223.59 -13.07,-141.85 -22.74,-218.55 -29.05,-230.08l67.8 -35.27c6.18,11.31 64.39,61.53 174.72,150.85 110.39,89.17 168.43,139.09 174.2,149.6zm-198.91 -100.86c-107.46,-89.04 -163.07,-137.07 -166.93,-144.14l-3.32 1.7c3.24,5.9 12.44,78.21 27.41,216.76l142.84 -74.33z"/>
   <path class="fil1" d="M2127.83 730.6c32.04,38.54 41.18,79.14 27.47,121.76 -13.71,42.65 -45.61,83.77 -95.56,123.4 -6.32,5.02 -11.99,9.22 -16.92,12.56 30.65,36.88 69.08,80.27 115.27,130.42l-49.27 39.11c-37.41,-50.07 -84.19,-108.97 -140.42,-176.6 -48.4,-58.2 -93.11,-109.37 -134.18,-153.68l36.75 -29.17c3.93,-3.11 14.92,-12.28 33.11,-27.55 18.14,-15.26 33.71,-28.04 46.76,-38.41 32.89,-26.08 65.12,-39.45 96.9,-40.07 31.68,-0.54 58.42,12.16 80.09,38.22zm-30.64 48.75c-36.14,-43.49 -84.3,-41.36 -144.44,6.35 -14.64,11.61 -30.2,25.96 -46.35,43.1 24.11,26.56 60.45,69.02 108.97,127.39 6.22,-4.37 13.76,-10.06 22.51,-17 77.17,-61.21 96.95,-114.55 59.31,-159.84z"/>
   <path class="fil2" d="M3387.03 1025.75c-794.45,0 -1443.01,638.87 -1443.01,1421.41 0,782.49 648.56,1421.38 1443.01,1421.38 562.68,0 1052.07,-320.67 1289.79,-785.72 -204.72,288.47 -544.22,477.98 -927.05,477.98 -622.42,0 -1130.57,-500.56 -1130.57,-1113.64 0,-613.1 508.15,-1113.62 1130.57,-1113.62 382.87,0 722.42,189.4 927.12,477.89 -237.66,-465.12 -727.11,-785.68 -1289.86,-785.68z"/>
   <g>
    <path class="fil1" d="M5018.11 2451.87l-62.65 0 0 0 -2.06 -80.18 -6.11 -79.11 -10.05 -77.94 -13.91 -76.7 -17.65 -75.34 -21.31 -73.9 -24.86 -72.36 -28.31 -70.72 -31.66 -68.99 -34.92 -67.16 -38.08 -65.23 -41.14 -63.21 -44.1 -61.08 -46.96 -58.86 -49.72 -56.54 -52.38 -54.12 -54.94 -51.59 -57.4 -48.98 -59.76 -46.26 -62.03 -43.45 -64.19 -40.54 -66.25 -37.52 -68.21 -34.42 -70.07 -31.21 -71.84 -27.9 -73.5 -24.5 -75.07 -21 -76.54 -17.4 -77.91 -13.71 -79.19 -9.91 -80.37 -6.02 -81.46 -2.03 0 -62.48 84.58 2.11 83.49 6.25 82.29 10.3 80.98 14.25 79.56 18.09 78.04 21.82 76.41 25.47 74.68 29 72.85 32.44 70.91 35.78 68.87 39.01 66.72 42.13 64.47 45.16 62.13 48.09 59.67 50.91 57.11 53.64 54.45 56.26 51.69 58.78 48.83 61.21 45.86 63.53 42.79 65.74 39.61 67.86 36.33 69.88 32.95 71.79 29.46 73.6 25.87 75.31 22.17 76.92 18.37 78.42 14.47 79.81 10.46 81.11 6.35 82.29 2.14 83.37 0 0zm-1644.57 1620.33l0 -62.48 0 0 81.46 -2.03 80.37 -6.01 79.19 -9.91 77.92 -13.71 76.54 -17.4 75.07 -21 73.5 -24.5 71.84 -27.9 70.07 -31.2 68.21 -34.41 66.25 -37.52 64.19 -40.53 62.03 -43.44 59.77 -46.26 57.4 -48.98 54.94 -51.59 52.38 -54.11 49.72 -56.54 46.96 -58.86 44.1 -61.08 41.14 -63.21 38.08 -65.23 34.92 -67.16 31.66 -69 28.31 -70.72 24.86 -72.36 21.31 -73.9 17.65 -75.35 13.91 -76.7 10.05 -77.95 6.11 -79.11 2.06 -80.19 62.65 0 -2.14 83.37 -6.35 82.3 -10.46 81.11 -14.47 79.82 -18.37 78.42 -22.17 76.92 -25.87 75.31 -29.46 73.6 -32.95 71.79 -36.33 69.88 -39.61 67.86 -42.79 65.74 -45.86 63.53 -48.83 61.2 -51.69 58.78 -54.45 56.26 -57.11 53.64 -59.67 50.91 -62.13 48.09 -64.47 45.16 -66.72 42.13 -68.87 39 -70.91 35.77 -72.85 32.44 -74.68 29 -76.41 25.47 -78.04 21.82 -79.56 18.08 -80.98 14.25 -82.29 10.3 -83.49 6.25 -84.58 2.11 0 0zm-1644.62 -1620.33l62.65 0 0 0 2.06 80.19 6.11 79.11 10.05 77.95 13.91 76.7 17.65 75.35 21.31 73.9 24.85 72.36 28.31 70.72 31.66 68.99 34.92 67.16 38.08 65.23 41.14 63.21 44.1 61.08 46.96 58.86 49.72 56.54 52.38 54.11 54.94 51.59 57.4 48.98 59.76 46.26 62.03 43.44 64.18 40.53 66.26 37.52 68.21 34.41 70.08 31.2 71.84 27.9 73.51 24.5 75.08 21 76.54 17.4 77.92 13.71 79.19 9.91 80.37 6.01 81.46 2.03 0 62.48 -84.58 -2.11 -83.49 -6.25 -82.29 -10.3 -80.98 -14.25 -79.56 -18.08 -78.04 -21.82 -76.42 -25.47 -74.69 -29 -72.85 -32.44 -70.91 -35.77 -68.87 -39 -66.72 -42.13 -64.48 -45.16 -62.12 -48.09 -59.67 -50.91 -57.11 -53.64 -54.46 -56.26 -51.69 -58.78 -48.83 -61.2 -45.86 -63.53 -42.79 -65.74 -39.61 -67.86 -36.33 -69.88 -32.95 -71.79 -29.46 -73.6 -25.87 -75.31 -22.17 -76.92 -18.37 -78.42 -14.47 -79.82 -10.46 -81.11 -6.35 -82.3 -2.14 -83.37 0 0zm1644.62 -1620.36l0 62.48 0 0 -81.46 2.03 -80.37 6.02 -79.19 9.91 -77.91 13.71 -76.55 17.4 -75.07 21 -73.51 24.5 -71.84 27.9 -70.08 31.21 -68.21 34.42 -66.25 37.52 -64.19 40.53 -62.03 43.45 -59.76 46.26 -57.41 48.98 -54.94 51.59 -52.38 54.12 -49.72 56.54 -46.96 58.86 -44.1 61.08 -41.14 63.21 -38.08 65.23 -34.92 67.16 -31.66 68.99 -28.31 70.72 -24.85 72.36 -21.31 73.9 -17.65 75.34 -13.91 76.7 -10.05 77.94 -6.11 79.11 -2.06 80.18 -62.65 0 2.14 -83.37 6.35 -82.29 10.46 -81.11 14.47 -79.81 18.37 -78.42 22.17 -76.92 25.87 -75.31 29.46 -73.6 32.95 -71.79 36.33 -69.88 39.61 -67.86 42.79 -65.74 45.86 -63.53 48.83 -61.21 51.69 -58.78 54.46 -56.26 57.11 -53.64 59.67 -50.91 62.13 -48.09 64.48 -45.16 66.72 -42.14 68.87 -39 70.91 -35.78 72.85 -32.44 74.68 -29 76.42 -25.47 78.05 -21.82 79.56 -18.09 80.98 -14.25 82.29 -10.3 83.49 -6.25 84.58 -2.11 0 0z"/>
   </g>
   <path class="fil3" d="M5737.91 6300.37c0,122.64 -56.72,200.06 -170.21,232.28 -39.81,11.44 -94.28,17.22 -163.25,17.22 -75.87,0 -136.07,-14.55 -180.53,-43.69 -49.82,-32.93 -74.69,-82.81 -74.69,-149.49 0,-62.06 17.19,-131.06 51.72,-206.9 9.96,-22.23 29.49,-60.17 58.59,-113.9l60.61 32.6c-21.87,37.43 -37.43,66.12 -46.74,85.86 -23.8,49.82 -36.1,95.44 -36.78,136.81 -1.57,77.44 54.36,116.18 167.81,116.18 58.27,0 113.84,-10.82 166.71,-32.24 49.08,-19.92 73.59,-40.96 73.59,-63.16 0,-56.72 -5.72,-124.6 -17.19,-203.61 -10.79,-66.66 -21.55,-133.7 -32.28,-201.19 -2.25,-16.83 -6.49,-48.25 -12.56,-94.25l-32.25 -17.25c0,-62.12 13.01,-120.33 39.09,-174.78l44.87 0c1.51,13.01 3.82,27.6 6.84,43.69 0.77,1.57 3.12,3.05 6.97,4.56 7.65,3.86 20.63,9.99 39.03,18.44 10.76,4.56 24.21,11.85 40.28,21.84 0,40.6 -0.77,65.17 -2.34,73.59 -3.05,16.15 -8.8,38.68 -17.22,67.84l-19.56 0c-1.51,-6.11 -2.31,-9.22 -2.31,-9.22 0.8,9.96 4.65,39.09 11.53,87.43 10.7,71.25 19.56,134.5 26.49,189.68 9.13,72.82 13.75,133.37 13.75,181.65zm563.07 -150.15l-26.91 64.32 -10.7 23 -12.48 22.29 -14.02 21.16 -15.56 20.03 -17.07 18.76 -18.64 17.69 -20.1 16.42 -22.64 16.03 -11.41 5.22 -10.31 4.36 -10.85 4.24 -11.47 4.03 -11.86 3.82 -12.42 3.67 -12.8 3.5 -13.43 3.41 -60.43 13.93 -98.55 19.03 0 -57.47 74.93 -30.47 54.18 -25.25 47.89 -25.96 41.62 -26.58 35.36 -27.24 29.16 -27.6 22.94 -27.92 13.61 -22.5 -0.68 -3.88 -3.11 -11.82 -4.24 -12.45 -5.48 -12.95 -6.64 -13.63 -7.88 -14.08 -9.1 -14.64 -9.87 -14.35 -3.32 -3.79 -4.74 -5.22 -5.39 -5.9 -6.11 -6.49 -6.7 -7.14 -7.32 -7.65 -7.94 -8.27 -8.63 -8.83 -5.66 -5.87 -5.99 -5.75 -6.4 -5.9 -7.03 -6.01 -7.53 -6.31 -7.94 -6.34 -8.42 -6.43 -9.01 -6.61 -43.77 -31.42 -2.43 -1.39 -2.88 -1.48 -1.72 -0.8 -1.16 1.54 -2.67 3.71 -3.17 4.41 -3.53 4.42 -3.67 4.03 -4.06 3.8 -4.42 3.32 -5.16 2.99 -6.46 2.37 -7.77 0.98 -9.57 -1.45 -9.16 -2.97 -9.75 -4.06 -11.26 -5.28 -12.86 -6.61 -14.61 -7.91 -16.42 -9.28 -19.53 -11.35 -6.91 -5.39 -5.6 -4.59 -5.22 -4.59 -4.89 -4.65 -4.35 -4.65 -4 -4.63 -3.64 -4.86 -5.19 -7.97 -1.69 -9.48 -0.92 -5.42 -0.95 -5.84 -1.04 -6.34 -1.03 -6.88 -1.07 -7.18 -1.13 -7.67 -1.39 -9.75 0.06 -21.79 1.22 -18.55 2.58 -16.6 4.24 -14.94 6.67 -13.48 9.84 -11.5 13.57 -7.91 14.88 -2.46 14.76 1.6 14.64 4.03 15.65 6.17 16.86 8.18 18.49 10.22 20.09 12.33 21.84 14.4 23.65 16.51 19.71 14.46 19.68 15.14 19.8 15.88 19.68 16.66 19.83 17.28 19.74 18.08 19.86 18.79 19.89 19.62 7.59 7.97 7.91 9.4 8.21 10.49 8.5 11.68 8.92 12.89 9.19 14.14 9.69 15.35 10.17 16.95 4 7.29 4.18 9.46 4.24 10.91 2.73 7.94 2.64 -9.57 5.6 -21.19 5.37 -21.4 5.1 -21.69 4.65 -20.83 9.01 -85.18 2.25 -102.61 0.39 -13.34 0.47 -12.03 0.57 -10.79 0.71 -9.54 0.86 -8.42 1.01 -7.35 1.39 -6.7 0.89 -2.93 0.3 -1.99 0.98 -4.65 1.37 -4.5 1.54 -4.41 1.99 -4.57 2.08 -4.33 2.34 -4.35 1.01 -1.75 4.77 -15.5 49.32 -76.02 14.46 142.92 50.44 388.52 2.97 13.84 3.05 13.43 2.96 12.12 2.88 10.88 2.82 9.51 2.73 8.27 2.58 6.85 2.31 5.39 3.03 5.72 2.96 4.24 3.08 3.26 3.2 2.49 3.62 1.93 4.3 1.48 5.1 0.98 6.7 0.42c46.62,0 139.27,4.41 186.27,-10.79l4.92 -2.93 2.01 -2.52 1.96 -5.13 1.48 -9.28 0.89 -13.04 0.71 -16.03 1.51 -18.52 5.96 -38.41 63.07 0 -4.18 62.15 0.59 36.93 -0.12 37.11 -5.6 36.81 -17.01 34.53 -32.69 27.15 -48.52 16.95 -45.08 5.04 0 2.88 -117.49 0 -9.24 -0.5 -9.78 -1.57 -9.57 -2.58 -9.43 -3.44 -9.25 -4.45 -9.01 -5.22 -8.78 -6.05 -10.52 -8.24 -4.86 -6.64 -3.71 -6.67 -3.58 -7.67 -3.88 -9.16 -4.12 -10.85 -4.5 -12.42 -4.89 -14.2 -5.93 -17.58 -31 -197.18 -2.84 13.34 -4.8 20.15 -4.89 18.05 -1.51 5.99 -1.93 6.96 -2.16 7.41 -2.4 7.82 -2.61 8.33 -2.88 8.95 -3.14 9.43 -3.64 10.64zm335.09 238.2c5.39,0 8.09,1.13 8.09,3.47 0,0.77 -15.56,16.66 -46.56,47.69 -31.06,31.09 -46.59,58.86 -46.59,83.4 0,14.55 6.17,21.82 18.32,21.82 3.17,0 6.94,-0.53 11.59,-1.66 4.59,-1.19 6.84,-1.78 6.84,-1.78 24.51,0 36.84,15.32 36.84,46.06 0,23.71 -4.59,44.78 -13.81,63.16 -10.7,20.72 -24.57,31.09 -41.46,31.09 -37.49,0 -56.32,-31.09 -56.32,-93.15 0,-49.85 18.02,-97.36 54.06,-142.59 29.94,-38.32 52.93,-57.5 69,-57.5zm-6214.02 -368.61l-92.03 112.69 -112.71 -96.62 94.28 -109.19 110.46 93.12zm189.65 258.71c0,101.16 -34.85,173.62 -104.62,217.31 -55.98,35.3 -138.32,52.93 -247.18,52.93 -79.76,0 -141.11,-14.2 -183.97,-42.59 -50.62,-33.67 -75.93,-84.29 -75.93,-151.74 0,-63.6 14.97,-132.22 44.84,-205.84 6.19,-15.33 23.83,-53.62 52.93,-115l66.66 28.78c-20.72,41.38 -32.58,65.17 -35.63,71.25 -13.01,28.36 -22.23,52.93 -27.59,73.59 -6.91,26.91 -10.79,53.67 -11.53,80.5 -0.74,37.58 12.83,66.54 40.84,86.81 27.95,20.36 70.72,30.88 128.24,31.62 59.72,0.77 114.94,-8.8 165.56,-28.75 66.69,-26.77 100.42,-65.47 101.16,-116.09 0.71,-32.99 -4.62,-66.36 -16.12,-100.06 -8.41,-25.31 -23.74,-52.11 -45.97,-80.47l69.03 -169.08c35.21,55.98 57.44,101.95 66.72,138.05 8.36,32.9 12.56,76.64 12.56,131.06l0 97.71zm244.78 -11.5l-34.14 0c-58.98,0 -97.33,-43.72 -114.94,-131.09 -6.16,-29.11 -11.5,-75.85 -16.12,-140.25 -0.74,-17.63 -3.05,-64.43 -6.94,-140.28 -2.25,-45.97 -5.72,-82.81 -10.34,-110.34 -3.82,-22.26 -8.39,-38.77 -13.81,-49.47 -8.39,-16.9 -22.91,-34.5 -43.66,-52.96l108.09 -167.81c24.51,82.81 39.86,156.72 46.03,221.9 3.03,29.11 5.72,87.4 8.03,174.78 2.31,67.49 5.33,124.18 9.22,170.15 3.05,32.24 9.57,55.19 19.56,69.03 6.11,8.42 11.05,12.6 14.88,12.6l34.14 0 68.23 0 173.23 0 0 8.09c0,-39.09 -4.65,-70.33 -13.78,-93.71 -9.24,-23.35 -28.78,-46.15 -58.65,-68.41l66.66 -142.56c32.98,40.6 51.04,63.96 54.03,70.12 24.54,39.07 39.09,114.52 43.77,226.47l58.71 0 68.88 0 80.59 0c6.14,0 9.19,-12.24 9.19,-36.78 0,-13.04 -0.36,-22.97 -1.16,-29.9 -2.25,-18.37 -4.59,-33.34 -6.88,-44.81l55.21 -79.34c19.92,67.46 32.58,106.22 37.94,116.12 21.46,49.85 48.25,74.72 80.44,74.72l36.81 0c25.37,0 42.03,-2.64 50.03,-8.06 8.03,-5.33 12.06,-14.88 12.06,-28.72 0,-13.04 -0.77,-22.97 -2.25,-29.9 -3.05,-23 -5.04,-37.52 -5.75,-43.69l56.32 -83.88 24.12 102.28c9.22,38.32 19.95,63.66 32.25,75.87 4.56,5.37 18.73,9.22 42.53,11.53 7.64,0.74 24.54,1.93 50.56,3.44 1.51,0 3.44,-1.16 5.75,-3.44 2.34,-2.31 3.47,-4.62 3.47,-6.88 0,-17.69 -6.52,-35.71 -19.56,-54.12 -7.65,-11.47 -19.5,-27.53 -35.66,-48.22l64.43 -105.78c30.64,48.28 48.25,80.47 52.84,96.56l-52.84 266.74c-65.95,0 -108.12,-3.44 -126.53,-10.31 -14.58,-5.39 -28,-12.69 -40.19,-21.87 -9.25,6.88 -21.52,13.78 -36.84,20.72 -24.54,7.62 -53.62,11.47 -87.4,11.47l-36.78 0c-23.77,0 -46.18,-4.8 -67.25,-14.37 -21.07,-9.54 -33.1,-15.14 -36.22,-16.66 -23.74,20.72 -40.6,31.03 -50.62,31.03l-88.62 0 -68.88 0 -323.97 0 -68.23 0zm388.62 -556.49l-70.33 122.26 -126.23 -71.69 63.19 -120.72 133.37 70.15zm-186.25 4.59l-64.19 121.9 -133.55 -69.03 64.4 -121.9 133.34 69.03zm883.21 284.02c8.33,26.79 12.63,63.22 12.63,109.16l0 14.96 48.9 0 67.19 0 82.25 0c20.75,0 38.74,-8.06 54.09,-24.09 15.32,-16.09 23,-34.91 23,-56.31 0,-27.65 -13.04,-63.25 -39.12,-106.99 -16.86,-28.37 -33.73,-56.34 -50.56,-83.97l3.41 2.34 -3.41 14.97 -42.59 -9.19c-29.08,-52.13 -43.66,-106.16 -43.66,-162.12 0,-40.67 9.16,-77.06 27.56,-109.25 31.51,-20.72 69.41,-41.38 113.84,-62.09l450.74 -206.97 -26.47 134.86 -464.46 215.82c-7.71,3.85 -11.56,4.62 -11.56,2.31 0,6.88 15.38,33.7 45.97,80.47 38.38,59.81 66.36,108.06 83.99,144.87 30.68,62.86 46,116.51 46,161.02 0,56.67 -19.94,106.52 -59.78,149.4 -36.78,39.12 -73.98,58.66 -111.56,58.66l-77.68 0 -67.19 0 -115.59 0 54.06 -267.87zm859 267.87l-34.35 0c-58.98,0 -97.33,-43.72 -114.97,-131.09 -6.14,-29.11 -11.41,-75.85 -16.09,-140.25 -0.74,-17.63 -3.05,-64.43 -6.91,-140.28 -2.25,-45.97 -5.75,-82.81 -10.37,-110.34 -3.82,-22.26 -8.36,-38.77 -13.78,-49.47 -8.48,-16.9 -22.97,-34.5 -43.69,-52.96l108.09 -167.81c24.57,82.81 39.89,156.72 46.03,221.9 3.05,29.11 5.75,87.4 8.06,174.78 2.28,67.49 5.33,124.18 9.16,170.15 3.08,32.24 9.57,55.19 19.56,69.03 6.11,8.42 11.09,12.6 14.91,12.6l34.35 0 67.99 0 173.44 0c-2.31,-29.85 -6.91,-52.87 -13.78,-68.97 -5.37,-13.01 -24.92,-37.91 -58.62,-74.69l65.5 -139.12c43.72,55.16 69.41,93.45 77.03,114.94 10.82,29.91 16.12,80.44 16.12,151.75l0 159.84 -259.69 0 -67.99 0zm302.4 310.43l-63.28 123.09 -129.94 -70.19 62.33 -123.59 130.88 70.69zm63.28 -164.43l-70.19 121.93 -126.47 -71.28 63.25 -120.57 133.4 69.91zm-186.34 4.65l-64.37 121.81 -133.37 -68.94 64.4 -121.9 133.34 69.03zm678.27 -150.65l-26.05 0c-12.24,89.36 -46.92,162.15 -104.03,218.26 -57.11,56.16 -124.77,84.14 -202.96,84.14 -35.27,0 -70.51,-9.19 -105.78,-27.56 -30.68,-16.12 -45.97,-29.16 -45.97,-39.15 0,-3.03 18.35,-7.23 55.16,-12.63 49.85,-7.67 92.71,-18.05 128.77,-31.06 58.27,-22.2 107.71,-53.61 148.34,-94.25 28.36,-28.33 48.66,-65.14 60.93,-110.37 -26.82,-11.47 -52.13,-27.59 -75.9,-48.31l0 -167.87c39.09,33.7 72.05,55.93 98.9,66.72 30.68,11.71 74.33,17.78 130.77,18.34l2.75 0 2.82 0 2.76 0 50.27 0c12.92,0 30.97,-10.73 54.03,-32.15 0.74,-0.8 19.12,-19.53 55.21,-56.34 24.45,-25.28 49.38,-37.97 74.72,-37.97 16.06,0 30.79,7.29 44.25,21.84 13.4,14.58 26.59,29.13 39.66,43.72 23.74,23 44.46,38.32 62.09,45.94 24.09,9.54 60.82,14.52 109.99,14.96l2.4 0 2.46 0 2.4 0 320.21 0c-43.77,-32.96 -85.15,-55.93 -124.24,-68.97 -26.86,-9.16 -55.16,-14.17 -85.06,-14.94 -17.73,-0.71 -48.34,3.05 -92,11.5 19.95,-54.42 40.64,-92 62.06,-112.69 29.94,-29.13 67.46,-43.72 112.71,-43.72 42.92,0 92.74,20.36 149.44,60.97 32.98,23.77 75.52,59.45 127.68,106.93 21.43,19.98 34.03,31.45 37.88,34.47 19.24,16.09 32.96,24.9 41.41,26.43l54.06 0 0 143.75 -604.14 0c-12.51,0.15 -24.13,0.18 -35.03,0l-38.05 0 0 -1.69c-31.3,-2.31 -52.58,-6.73 -63.72,-13.24 -16.86,19.15 -40.64,28.75 -71.31,28.75 -56.67,0 -106.52,-27.6 -149.43,-82.87 -27.59,46.06 -57.14,69.06 -88.53,69.06l-51.39 0 -70.51 0zm339.18 -117.25c-0.71,0 -1.09,-1.96 -1.09,-5.78 0,-9.93 -5.04,-20.13 -15.03,-30.5 -9.96,-10.34 -18.73,-15.5 -26.41,-15.5 -4.57,0 -9.6,2.49 -14.94,7.53 -5.36,4.95 -8,9.69 -8,14.37 0,9.93 8.8,17.58 26.41,22.97 13.81,4.59 26.88,6.9 39.06,6.9zm1057.85 8c0,36.04 -5.75,67.84 -17.19,95.46 -8.45,19.95 -24.92,51.36 -49.47,94.28l-43.72 -24.15 4.59 -51.72c0.77,-9.22 1.16,-18.05 1.16,-26.43 0,-65.17 -11.5,-198.55 -34.23,-400.14 -4.06,-31.48 -10.26,-81.98 -18.64,-151.81 6.11,-15.33 15.32,-36.01 27.59,-62.04 6.11,-13.07 26.85,-52.55 62.12,-118.46l33.31 256.4c5.33,41.43 13.07,111.94 23,211.59 7.62,78.21 11.47,137.22 11.47,177.03zm495.97 459.6c0,53.26 -9.96,84.14 -29.67,92.56l-168.08 67.22c0,-34.47 1.9,-57.5 5.72,-68.97 4.62,-7.62 16.86,-18.34 36.81,-32.21l155.22 -58.6z"/>
  </g>
 </g>
</svg>
