<svg id="Layer_1" data-name="Layer 1" xmlns="http://www.w3.org/2000/svg" viewBox="0 0 408.21 189"><defs><style>.cls-1{fill:#ec2527;}.cls-2{fill:#fff;}</style></defs><path class="cls-1" d="M110.06,162.77A71.33,71.33,0,1,1,163,43.65C145.83,16.47,112.36.42,78.47,5.8,58.25,9,41.1,18.15,27.54,33.5,9,54.5,2.09,79.14,6.72,106.7c3.46,20.61,13.69,37.67,29.68,51.14a84.9,84.9,0,0,0,49.76,20.08A81.52,81.52,0,0,0,131,168.15a84.11,84.11,0,0,0,31.5-28.37A71.14,71.14,0,0,1,110.06,162.77Z"/><path class="cls-2" d="M185.41,37.63h17.92a42,42,0,0,1,11.17,1.14,12.46,12.46,0,0,1,5.88,3.3A11.3,11.3,0,0,1,223,47.29a47,47,0,0,1,.7,9.48v6q0,6.56-1.36,9.55a9.24,9.24,0,0,1-5,4.61A23.52,23.52,0,0,1,208,78.5H203.2v27.55H185.41ZM203.2,49.34V66.75c.51,0,.94,0,1.31,0a4.12,4.12,0,0,0,3.4-1.2c.63-.81,1-2.48,1-5V55c0-2.34-.36-3.86-1.1-4.57S205.51,49.34,203.2,49.34Z"/><path class="cls-2" d="M237.51,37.63H250.1q12.59,0,17,1a11.76,11.76,0,0,1,7.27,5q2.81,4,2.81,12.74,0,8-2,10.73c-1.33,1.84-3.93,2.93-7.82,3.3q5.28,1.3,7.1,3.51a10.53,10.53,0,0,1,2.26,4q.43,1.84.44,10.12v18H260.71V83.31q0-5.49-.87-6.8c-.58-.87-2.09-1.31-4.54-1.31v30.85H237.51ZM255.3,49.34V64.55a7.9,7.9,0,0,0,4.2-.82c.81-.55,1.21-2.34,1.21-5.35V54.62c0-2.17-.39-3.59-1.16-4.27S257.35,49.34,255.3,49.34Z"/><path class="cls-2" d="M334.32,67.42H316.53V55.53c0-3.46-.19-5.61-.57-6.47a2.46,2.46,0,0,0-2.52-1.29c-1.46,0-2.39.52-2.79,1.57s-.59,3.29-.59,6.76V87.88q0,5,.59,6.51a2.54,2.54,0,0,0,2.66,1.52,2.5,2.5,0,0,0,2.6-1.53q.61-1.51.62-7.16v-8.6h17.79v2.67q0,10.62-1.5,15.07t-6.64,7.78a22.7,22.7,0,0,1-12.66,3.35q-7.81,0-12.88-2.83a13.74,13.74,0,0,1-6.72-7.84q-1.65-5-1.65-15.07v-20a90.7,90.7,0,0,1,.5-11.09,15.49,15.49,0,0,1,3-7.12,16.75,16.75,0,0,1,7-5.39,25.19,25.19,0,0,1,10.25-2q7.86,0,13,3a14.57,14.57,0,0,1,6.72,7.58q1.6,4.53,1.61,14.11Z"/><path class="cls-2" d="M387.05,58.34H370.53V53.27c0-2.37-.22-3.88-.64-4.53a2.35,2.35,0,0,0-2.11-1,2.7,2.7,0,0,0-2.43,1.31,7.62,7.62,0,0,0-.83,4,11.26,11.26,0,0,0,.93,5.16c.59,1.15,2.27,2.55,5,4.18q11.88,7,15,11.57t3.09,14.58q0,7.32-1.71,10.78t-6.62,5.81a26.07,26.07,0,0,1-11.41,2.35,25.44,25.44,0,0,1-12.19-2.71q-5.06-2.7-6.61-6.89T348.42,86V81.54H365v8.32q0,3.86.69,5a2.72,2.72,0,0,0,2.48,1.1,2.9,2.9,0,0,0,2.64-1.4,7.94,7.94,0,0,0,.86-4.14q0-6-1.64-7.9t-8.33-6.21a81.43,81.43,0,0,1-8.79-6.39,14.78,14.78,0,0,1-3.57-5.49,24.24,24.24,0,0,1-1.42-9q0-7.86,2-11.49a13.5,13.5,0,0,1,6.49-5.69,26,26,0,0,1,10.82-2.05A28.22,28.22,0,0,1,379,38.43q4.88,2.25,6.47,5.64t1.58,11.56Z"/><path class="cls-2" d="M177.18,117h5.75q9.24,0,9.24,12.93,0,13.22-9.24,13.22h-5.75Zm2.4,23h3.3c2.63,0,4.43-.88,5.38-2.65a15.8,15.8,0,0,0,1.44-7.46,15.13,15.13,0,0,0-1.43-7.26q-1.43-2.57-5.39-2.57h-3.3Z"/><path class="cls-2" d="M200,120.62H197.7V117H200Zm0,22.51H197.7V124.2H200Z"/><path class="cls-2" d="M216.64,141.66q0,9.14-5.71,9.14a5,5,0,0,1-3.9-1.56,5.87,5.87,0,0,1-1.43-4.17H208q0,3.1,2.89,3.1a2.9,2.9,0,0,0,2.53-1.29c.59-.86.89-2.55.89-5.07v-.95q-1.56,2.71-3.75,2.71a4.36,4.36,0,0,1-4-2.64,15.16,15.16,0,0,1-1.41-7.11,14.55,14.55,0,0,1,1.57-7.34q1.59-2.72,4-2.71a4.42,4.42,0,0,1,3.6,1.89V124.2h2.32Zm-2.32-4v-9q-1.51-2.31-3.45-2.31a2.73,2.73,0,0,0-2.4,1.87,13.45,13.45,0,0,0-.89,5.56,13,13,0,0,0,.84,5.3,2.61,2.61,0,0,0,2.35,1.81Q212.72,140.93,214.32,137.69Z"/><path class="cls-2" d="M225,120.62h-2.33V117H225Zm0,22.51h-2.33V124.2H225Z"/><path class="cls-2" d="M236,143.16a6.3,6.3,0,0,1-1.67.22,2.69,2.69,0,0,1-2.1-.74,3.49,3.49,0,0,1-.83-1.9,23.86,23.86,0,0,1-.16-3.16V126.84h-1.62V124.2h1.62v-4.71h2.32v4.71h2.13v2.64h-2.13v10.92a5.62,5.62,0,0,0,.34,2.47,1.06,1.06,0,0,0,.94.52,4.44,4.44,0,0,0,1.16-.14Z"/><path class="cls-2" d="M248.82,141.18a5.47,5.47,0,0,1-4.59,2.39,4,4,0,0,1-3.22-1.52,6,6,0,0,1-1.26-3.94q0-6.63,7.93-6.63h1.14a20.36,20.36,0,0,0-.15-2.95,2.55,2.55,0,0,0-.83-1.53,3.2,3.2,0,0,0-2.16-.61c-2.08,0-3.15,1.08-3.22,3.22h-2.32q.26-5.84,5.66-5.84a5.22,5.22,0,0,1,3.93,1.45q1.41,1.44,1.41,5.67v12.24h-2.32Zm0-3V134h-1.6c-3.38,0-5.07,1.32-5.07,4a3.12,3.12,0,0,0,.74,2.22,2.69,2.69,0,0,0,2,.77,3.82,3.82,0,0,0,2.22-.75A5.07,5.07,0,0,0,248.82,138.15Z"/><path class="cls-2" d="M259.47,143.13h-2.34V117h2.34Z"/><path class="cls-2" d="M281.85,143.57a6.76,6.76,0,0,1-5.74-2.48,10.61,10.61,0,0,1-2-6.36h2.31a6.19,6.19,0,0,0,1.69,4.32,5.14,5.14,0,0,0,3.63,1.4,4.48,4.48,0,0,0,3.24-1.19,4.33,4.33,0,0,0,1.23-3.25,3.7,3.7,0,0,0-1.27-3.14,14.62,14.62,0,0,0-4.38-1.93,8.89,8.89,0,0,1-4.47-2.65,7.05,7.05,0,0,1-1.35-4.52,7.66,7.66,0,0,1,1.76-5.21,5.89,5.89,0,0,1,4.68-2,6.43,6.43,0,0,1,4.95,2,8.73,8.73,0,0,1,2,5.8h-2.34c-.24-3.16-1.74-4.75-4.5-4.75a4.23,4.23,0,0,0-3.1,1.09,3.87,3.87,0,0,0-1.11,2.89,3.18,3.18,0,0,0,.89,2.46,9.12,9.12,0,0,0,3.3,1.59,24.08,24.08,0,0,1,3.84,1.52,6.51,6.51,0,0,1,2.44,2.33,7.79,7.79,0,0,1,1,4.23,8.43,8.43,0,0,1-1.86,5.6A6,6,0,0,1,281.85,143.57Z"/><path class="cls-2" d="M299.44,123.77a5.14,5.14,0,0,1,4.49,2.59,13.47,13.47,0,0,1,1.67,7.31,13.52,13.52,0,0,1-1.67,7.31,5.17,5.17,0,0,1-9,0,13.52,13.52,0,0,1-1.67-7.31,13.47,13.47,0,0,1,1.67-7.31A5.13,5.13,0,0,1,299.44,123.77Zm0,17.16a3.07,3.07,0,0,0,2.71-1.83,11.11,11.11,0,0,0,1-5.43,11.22,11.22,0,0,0-1-5.45,2.91,2.91,0,0,0-5.41,0,11.22,11.22,0,0,0-1,5.45,11.11,11.11,0,0,0,1,5.43A3.07,3.07,0,0,0,299.44,140.93Z"/><path class="cls-2" d="M313.09,143.13h-2.34V117h2.34Z"/><path class="cls-2" d="M327.37,140.72q-1.74,2.85-3.92,2.85-4.44,0-4.44-7V124.2h2.33v12.24a7.18,7.18,0,0,0,.57,3.33,2,2,0,0,0,1.88,1q2,0,3.58-3V124.2h2.32v18.93h-2.32Z"/><path class="cls-2" d="M340.77,143.16a6.3,6.3,0,0,1-1.67.22,2.71,2.71,0,0,1-2.1-.74,3.49,3.49,0,0,1-.83-1.9,23.86,23.86,0,0,1-.16-3.16V126.84h-1.62V124.2H336v-4.71h2.33v4.71h2.12v2.64h-2.12v10.92a5.47,5.47,0,0,0,.34,2.47,1,1,0,0,0,.93.52,4.44,4.44,0,0,0,1.16-.14Z"/><path class="cls-2" d="M347.59,120.62h-2.34V117h2.34Zm0,22.51h-2.34V124.2h2.34Z"/><path class="cls-2" d="M358.88,123.77a5.13,5.13,0,0,1,4.48,2.59,13.47,13.47,0,0,1,1.67,7.31,13.52,13.52,0,0,1-1.67,7.31,5.17,5.17,0,0,1-9,0,13.52,13.52,0,0,1-1.67-7.31,13.47,13.47,0,0,1,1.67-7.31A5.13,5.13,0,0,1,358.88,123.77Zm0,17.16a3.07,3.07,0,0,0,2.7-1.83,11.11,11.11,0,0,0,1-5.43,11.22,11.22,0,0,0-1-5.45,2.91,2.91,0,0,0-5.41,0,11.22,11.22,0,0,0-1,5.45,11.11,11.11,0,0,0,1,5.43A3.07,3.07,0,0,0,358.88,140.93Z"/><path class="cls-2" d="M372.51,126.61c1.17-1.89,2.47-2.84,3.93-2.84q4.44,0,4.44,7v12.38h-2.34V130.89a7.07,7.07,0,0,0-.58-3.34,2,2,0,0,0-1.88-1q-1.79,0-3.57,3v13.56h-2.33V124.2h2.33Z"/><path class="cls-2" d="M391.49,143.57q-5.39,0-5.63-6.1h2.34q0,3.47,3.26,3.46a2.8,2.8,0,0,0,2.21-.86,3.16,3.16,0,0,0,.76-2.17,2.07,2.07,0,0,0-.74-1.81,14.82,14.82,0,0,0-3.06-1.36,9.55,9.55,0,0,1-3.39-1.88c-.72-.69-1.07-1.9-1.07-3.64a5.7,5.7,0,0,1,1.33-3.89,4.44,4.44,0,0,1,3.55-1.55q5.16,0,5.27,5.3H394a2.49,2.49,0,0,0-2.79-2.68,2.91,2.91,0,0,0-1.94.65,2.28,2.28,0,0,0-.78,1.87,2,2,0,0,0,.6,1.6,12.2,12.2,0,0,0,3,1.32,9.66,9.66,0,0,1,3.54,1.93c.77.74,1.15,2,1.15,3.82a6.47,6.47,0,0,1-1.42,4.29A4.79,4.79,0,0,1,391.49,143.57Z"/></svg>